<?xml version="1.0" standalone="no"?>
<!DOCTYPE svg PUBLIC "-//W3C//DTD SVG 20010904//EN"
 "http://www.w3.org/TR/2001/REC-SVG-20010904/DTD/svg10.dtd">
<svg version="1.0" xmlns="http://www.w3.org/2000/svg"
 width="512.000000pt" height="512.000000pt" viewBox="0 0 512.000000 512.000000"
 preserveAspectRatio="xMidYMid meet">
<metadata>
Created by potrace 1.14, written by Peter Selinger 2001-2017
</metadata>
<g transform="translate(0.000000,512.000000) scale(0.100000,-0.100000)"
fill="#000000" stroke="none">
<path d="M231 4732 c-6 -11 -6 -24 0 -35 8 -14 26 -17 109 -17 85 0 101 3 109
18 6 11 6 24 0 35 -8 14 -26 17 -109 17 -85 0 -101 -3 -109 -18z"/>
<path d="M551 4732 c-6 -11 -6 -24 0 -35 9 -16 43 -17 429 -17 386 0 420 1
429 17 6 11 6 24 0 35 -9 17 -38 18 -429 18 -391 0 -420 -1 -429 -18z"/>
<path d="M3949 3923 c-966 -968 -881 -862 -887 -1106 -4 -140 -3 -150 17 -171
l20 -22 -174 -174 c-179 -179 -201 -211 -154 -225 18 -6 50 22 200 171 l178
178 25 -23 c24 -23 29 -23 163 -19 161 5 217 22 310 93 32 24 297 283 589 577
555 558 594 602 655 748 47 110 62 192 62 325 -1 147 -23 239 -91 375 -33 67
-53 96 -67 98 -15 2 -232 -210 -846 -825z m864 657 c115 -264 76 -562 -103
-784 -27 -34 -289 -300 -582 -593 -626 -625 -575 -586 -785 -591 -73 -2 -133
0 -133 5 0 4 162 170 360 369 296 296 359 364 354 380 -8 21 -23 34 -40 34 -6
0 -173 -162 -370 -359 -291 -292 -361 -358 -373 -348 -22 19 -9 215 19 292 21
58 53 91 819 858 437 438 799 797 802 797 4 0 18 -27 32 -60z"/>
<path d="M601 4186 c-48 -17 -108 -71 -133 -119 -16 -33 -22 -66 -26 -154 l-5
-113 -35 0 c-86 0 -172 -54 -215 -134 l-22 -41 0 -1340 c0 -1288 1 -1341 19
-1375 23 -45 73 -97 111 -118 27 -15 119 -17 990 -22 l960 -5 62 -29 c113 -52
197 -163 210 -279 7 -65 18 -87 43 -87 25 0 36 22 43 87 13 116 97 227 210
279 l62 29 960 5 c871 5 963 7 990 22 38 21 88 73 111 118 18 34 19 87 19
1370 l0 1335 -25 50 c-26 53 -56 68 -79 41 -9 -11 -8 -27 9 -75 20 -60 20 -78
20 -1351 0 -1382 2 -1328 -47 -1382 -45 -50 -12 -48 -988 -48 -579 0 -932 -4
-966 -10 -81 -15 -171 -62 -229 -118 l-53 -51 5 102 c7 137 32 203 107 277 31
31 79 67 106 80 l50 25 820 5 c922 6 856 0 931 82 68 76 64 0 64 1162 l0 1056
-27 6 c-55 14 -53 60 -53 -1071 l0 -1042 -22 -33 c-13 -18 -36 -43 -51 -54
-28 -21 -36 -21 -845 -26 -729 -4 -821 -7 -858 -22 -81 -32 -120 -57 -171
-108 l-53 -53 0 1477 c0 1637 -5 1508 67 1563 l36 28 665 5 c606 5 666 6 675
22 8 12 7 21 -2 32 -12 14 -83 16 -664 16 -469 0 -661 -3 -689 -12 -22 -6 -59
-29 -84 -51 l-44 -39 -44 39 c-25 22 -62 45 -84 51 -57 17 -1783 16 -1831 -2z
m1834 -82 c25 -13 47 -36 62 -64 l23 -43 0 -1467 0 -1466 -56 54 c-32 31 -83
67 -122 85 l-67 32 -820 5 -820 5 -38 24 c-21 12 -46 40 -57 62 -20 37 -20 65
-20 1354 0 1283 0 1317 19 1354 23 44 55 67 108 80 21 5 422 8 893 8 845 -2
855 -2 895 -23z m-2007 -396 c9 -9 12 -287 12 -1187 l0 -1176 27 -53 c25 -50
70 -91 128 -118 11 -5 375 -11 840 -14 l820 -5 50 -25 c28 -13 75 -49 106 -80
74 -73 99 -139 106 -278 l6 -103 -52 51 c-58 58 -148 104 -230 120 -34 6 -387
10 -966 10 -976 0 -943 -2 -988 48 -49 54 -47 0 -47 1384 1 1372 0 1338 46
1390 37 40 117 61 142 36z"/>
<path d="M1172 3388 c-18 -18 -14 -46 7 -58 13 -6 139 -10 341 -10 202 0 328
4 341 10 21 12 25 40 7 58 -17 17 -679 17 -696 0z"/>
<path d="M932 2988 c-18 -18 -14 -46 7 -58 13 -6 213 -10 581 -10 368 0 568 4
581 10 21 12 25 40 7 58 -17 17 -1159 17 -1176 0z"/>
<path d="M932 2588 c-18 -18 -14 -46 7 -58 27 -14 1135 -14 1162 0 21 12 25
40 7 58 -17 17 -1159 17 -1176 0z"/>
<path d="M932 2188 c-18 -18 -14 -46 7 -58 27 -14 1135 -14 1162 0 21 12 25
40 7 58 -17 17 -1159 17 -1176 0z"/>
<path d="M932 1788 c-18 -18 -14 -46 7 -58 27 -14 1135 -14 1162 0 21 12 25
40 7 58 -17 17 -1159 17 -1176 0z"/>
<path d="M3016 2184 c-19 -19 -20 -26 -4 -42 17 -17 1159 -17 1176 0 16 16 15
23 -4 42 -14 14 -80 16 -584 16 -504 0 -570 -2 -584 -16z"/>
<path d="M3016 1784 c-19 -19 -20 -26 -4 -42 17 -17 1159 -17 1176 0 16 16 15
23 -4 42 -14 14 -80 16 -584 16 -504 0 -570 -2 -584 -16z"/>
<path d="M3431 452 c-6 -11 -6 -24 0 -35 9 -16 43 -17 429 -17 386 0 420 1
429 17 6 11 6 24 0 35 -9 17 -38 18 -429 18 -391 0 -420 -1 -429 -18z"/>
<path d="M4391 452 c-6 -11 -6 -24 0 -35 8 -14 26 -17 109 -17 85 0 101 3 109
18 6 11 6 24 0 35 -8 14 -26 17 -109 17 -85 0 -101 -3 -109 -18z"/>
</g>
</svg>
