<?xml version="1.0" standalone="no"?>
<!DOCTYPE svg PUBLIC "-//W3C//DTD SVG 20010904//EN"
 "http://www.w3.org/TR/2001/REC-SVG-20010904/DTD/svg10.dtd">
<svg version="1.0" xmlns="http://www.w3.org/2000/svg"
 width="512.000000pt" height="512.000000pt" viewBox="0 0 512.000000 512.000000"
 preserveAspectRatio="xMidYMid meet">
<metadata>
Created by potrace 1.14, written by Peter Selinger 2001-2017
</metadata>
<g transform="translate(0.000000,512.000000) scale(0.100000,-0.100000)"
fill="#000000" stroke="none">
<path d="M248 4753 c-22 -6 -33 -40 -18 -58 19 -23 215 -21 224 1 9 24 8 31
-10 48 -12 12 -35 16 -97 15 -45 -1 -90 -3 -99 -6z"/>
<path d="M568 4753 c-22 -6 -33 -40 -18 -58 11 -13 78 -15 435 -15 383 0 423
2 429 16 10 26 -2 51 -27 58 -25 7 -793 6 -819 -1z"/>
<path d="M4775 4750 c-11 -5 -385 -374 -831 -822 -620 -622 -816 -825 -837
-865 -38 -71 -57 -168 -57 -289 0 -88 3 -105 21 -128 l22 -28 -178 -178 c-160
-162 -176 -180 -166 -199 24 -44 50 -26 228 151 168 168 173 171 192 154 17
-16 37 -17 173 -14 244 5 177 -44 851 627 585 583 641 644 697 776 102 237 90
497 -33 741 -38 76 -50 86 -82 74z m25 -137 c30 -65 61 -172 72 -250 24 -163
-21 -355 -117 -505 -36 -56 -175 -201 -603 -630 -647 -647 -599 -610 -795
-616 -64 -2 -125 -1 -134 2 -13 5 66 90 345 369 199 200 362 368 362 374 0 17
-29 43 -48 43 -9 0 -177 -160 -373 -356 -239 -239 -361 -354 -369 -349 -21 13
-6 218 21 291 20 57 54 92 818 857 437 438 798 797 802 797 3 0 12 -12 19 -27z"/>
<path d="M568 4175 c-93 -49 -127 -121 -128 -272 l0 -103 -52 0 c-97 -1 -191
-74 -218 -168 -14 -51 -14 -2643 0 -2694 16 -56 69 -119 125 -147 l49 -26 961
-5 960 -5 63 -34 c122 -67 175 -157 202 -348 0 -2 13 -3 29 -3 33 0 35 5 46
85 14 111 84 210 187 266 l63 34 960 5 961 5 49 26 c56 28 109 91 125 147 6
25 10 476 10 1352 -1 1393 0 1360 -46 1411 -22 25 -67 22 -72 -5 -2 -10 4 -37
15 -59 17 -40 18 -99 18 -1357 0 -1297 0 -1315 -20 -1349 -11 -19 -33 -43 -48
-55 -28 -21 -32 -21 -985 -26 l-957 -5 -57 -23 c-64 -26 -163 -95 -191 -133
-17 -23 -18 -22 -13 81 8 182 68 285 204 352 l67 33 815 5 c758 5 818 6 851
23 50 25 98 74 120 122 18 38 19 95 19 1097 l0 1058 -25 6 c-58 14 -55 75 -55
-1054 0 -1027 0 -1036 -21 -1078 -12 -26 -36 -53 -57 -66 l-37 -23 -820 -5
-820 -5 -67 -32 c-39 -18 -90 -54 -122 -85 l-56 -54 0 1466 0 1467 23 43 c44
84 5 80 742 80 701 0 691 -1 683 51 l-3 24 -673 3 -672 2 -49 -25 c-27 -13
-58 -36 -70 -51 l-21 -27 -21 27 c-12 15 -43 38 -70 51 l-48 25 -903 0 -903
-1 -47 -24z m1884 -80 c15 -11 37 -38 48 -61 20 -40 20 -57 20 -1505 l0 -1465
-56 54 c-32 31 -83 67 -122 85 l-67 32 -821 5 -820 5 -37 25 c-20 13 -45 41
-56 61 -21 37 -21 44 -21 1350 0 1290 0 1313 20 1354 12 25 34 50 57 63 l38
22 895 -3 c877 -2 896 -2 922 -22z m-2024 -387 c9 -9 12 -287 12 -1187 0
-1117 1 -1178 19 -1216 22 -50 67 -96 118 -121 36 -18 78 -19 853 -24 l815 -5
67 -33 c136 -67 195 -169 205 -352 l5 -105 -31 36 c-36 43 -110 92 -183 122
-53 22 -57 22 -1010 27 -953 5 -957 5 -985 26 -15 12 -37 36 -48 55 -20 33
-20 54 -23 1332 -1 858 1 1312 8 1337 5 20 20 50 32 65 36 46 118 71 146 43z"/>
<path d="M1172 3388 c-16 -16 -15 -43 2 -57 9 -8 110 -11 351 -9 309 3 339 4
349 21 8 12 8 22 0 35 -10 16 -40 17 -350 20 -256 2 -343 -1 -352 -10z"/>
<path d="M932 2988 c-16 -16 -15 -43 2 -57 9 -8 173 -10 591 -9 538 3 579 4
589 21 8 12 8 22 0 35 -10 16 -51 17 -591 20 -442 2 -582 -1 -591 -10z"/>
<path d="M932 2588 c-16 -16 -15 -43 2 -57 9 -8 173 -10 591 -9 538 3 579 4
589 21 8 12 8 22 0 35 -10 16 -51 17 -591 20 -442 2 -582 -1 -591 -10z"/>
<path d="M932 2188 c-16 -16 -15 -43 2 -57 9 -8 173 -10 591 -9 538 3 579 4
589 21 8 12 8 22 0 35 -10 16 -51 17 -591 20 -442 2 -582 -1 -591 -10z"/>
<path d="M932 1788 c-16 -16 -15 -43 2 -57 9 -8 173 -10 591 -9 538 3 579 4
589 21 8 12 8 22 0 35 -10 16 -51 17 -591 20 -442 2 -582 -1 -591 -10z"/>
<path d="M3012 2188 c-16 -16 -15 -43 2 -57 9 -8 173 -10 591 -9 538 3 579 4
589 21 8 12 8 22 0 35 -10 16 -51 17 -591 20 -442 2 -582 -1 -591 -10z"/>
<path d="M3012 1788 c-16 -16 -15 -43 2 -57 9 -8 173 -10 591 -9 538 3 579 4
589 21 8 12 8 22 0 35 -10 16 -51 17 -591 20 -442 2 -582 -1 -591 -10z"/>
<path d="M3448 473 c-22 -6 -33 -40 -18 -58 11 -13 78 -15 435 -15 383 0 423
2 429 16 10 26 -2 51 -27 58 -25 7 -793 6 -819 -1z"/>
<path d="M4408 473 c-22 -6 -33 -40 -18 -58 10 -11 38 -15 116 -15 91 0 103 2
109 19 8 26 -3 48 -28 55 -25 7 -153 6 -179 -1z"/>
</g>
</svg>
